<svg width="100%" viewBox="0 0 457 149" fill="none" xmlns="http://www.w3.org/2000/svg">
    <g clip-path="url(#clip0_2054_346)">
        <path d="M426.5 148.13H1L16.2 77.0303H441.7L426.5 148.13Z" fill="white"/>
        <path d="M53.07 103.7C52.19 103.7 51.3633 103.9 50.59 104.3C49.8433 104.7 49.1633 105.234 48.55 105.9C47.9633 106.567 47.4567 107.327 47.03 108.18C46.6033 109.034 46.2833 109.914 46.07 110.82C45.83 111.674 45.7367 112.514 45.79 113.34C45.87 114.14 46.0567 114.874 46.35 115.54C46.67 116.18 47.0967 116.7 47.63 117.1C48.19 117.5 48.8433 117.687 49.59 117.66C50.3367 117.634 51.0833 117.42 51.83 117.02C52.6033 116.594 53.31 116.06 53.95 115.42C54.6167 114.754 55.19 113.994 55.67 113.14C56.1767 112.26 56.55 111.34 56.79 110.38C57.0033 109.474 57.0833 108.62 57.03 107.82C56.9767 106.994 56.79 106.274 56.47 105.66C56.1767 105.047 55.7367 104.567 55.15 104.22C54.59 103.874 53.8967 103.7 53.07 103.7ZM55.23 94.5403C57.31 94.5136 59.0967 94.8736 60.59 95.6203C62.0833 96.3669 63.2567 97.3936 64.11 98.7003C64.99 100.007 65.5367 101.567 65.75 103.38C65.9633 105.167 65.8433 107.114 65.39 109.22C64.8833 111.567 64.0967 113.7 63.03 115.62C61.9633 117.54 60.67 119.194 59.15 120.58C57.63 121.94 55.8967 123.007 53.95 123.78C52.0033 124.527 49.8967 124.9 47.63 124.9C45.71 124.9 44.0567 124.514 42.67 123.74C41.2833 122.94 40.1767 121.874 39.35 120.54C38.55 119.207 38.03 117.66 37.79 115.9C37.55 114.114 37.6167 112.234 37.99 110.26C38.47 107.7 39.2567 105.447 40.35 103.5C41.4433 101.554 42.75 99.9269 44.27 98.6203C45.8167 97.2869 47.5233 96.2869 49.39 95.6203C51.2567 94.9269 53.2033 94.5669 55.23 94.5403ZM72.0681 95.3803C73.6681 95.2469 75.3481 95.1403 77.1081 95.0603C78.8681 94.9803 80.6548 94.9269 82.4681 94.9003C84.2815 94.8469 86.0948 94.8336 87.9081 94.8603C89.7481 94.8869 91.5481 94.9536 93.3081 95.0603C92.8815 96.5003 92.4681 97.9136 92.0681 99.3003C91.6948 100.66 91.3615 102.02 91.0681 103.38C90.1348 103.327 89.1348 103.3 88.0681 103.3C87.0281 103.274 85.9615 103.287 84.8681 103.34C84.3881 104.994 83.8815 106.687 83.3481 108.42C82.8415 110.154 82.3215 111.9 81.7881 113.66C81.2815 115.42 80.7748 117.18 80.2681 118.94C79.7615 120.674 79.2948 122.354 78.8681 123.98C77.6681 123.874 76.3881 123.834 75.0281 123.86C73.6948 123.887 72.4281 123.954 71.2281 124.06C71.6281 122.487 72.0281 120.847 72.4281 119.14C72.8548 117.434 73.2681 115.7 73.6681 113.94C74.0948 112.154 74.5215 110.38 74.9481 108.62C75.3748 106.834 75.8148 105.087 76.2681 103.38C75.2548 103.327 74.2015 103.327 73.1081 103.38C72.0148 103.407 70.9615 103.447 69.9481 103.5C70.1615 102.167 70.4281 100.82 70.7481 99.4603C71.0948 98.1003 71.5348 96.7403 72.0681 95.3803ZM117.638 105.7C117.638 105.007 117.478 104.327 117.158 103.66C116.731 102.78 115.945 102.194 114.798 101.9C114.158 101.767 113.491 101.687 112.798 101.66C112.105 101.634 111.331 101.7 110.478 101.86C109.651 101.994 108.718 102.247 107.678 102.62C106.638 102.967 105.438 103.474 104.078 104.14C104.398 103.287 104.678 102.567 104.918 101.98C105.185 101.367 105.451 100.794 105.718 100.26C105.985 99.7269 106.278 99.1803 106.598 98.6203C106.945 98.0603 107.358 97.4069 107.838 96.6603C108.825 96.1269 109.891 95.7536 111.038 95.5403C112.185 95.3269 113.225 95.1936 114.158 95.1403C116.078 95.1136 117.785 95.4203 119.278 96.0603C120.771 96.6736 122.011 97.5269 122.998 98.6203C123.985 99.7136 124.691 101.02 125.118 102.54C125.545 104.06 125.651 105.714 125.438 107.5C125.198 109.474 124.665 111.327 123.838 113.06C123.038 114.794 122.025 116.367 120.798 117.78C119.598 119.167 118.211 120.367 116.638 121.38C115.091 122.394 113.438 123.167 111.678 123.7C110.531 124.047 109.371 124.3 108.198 124.46C107.051 124.594 105.931 124.66 104.838 124.66C103.745 124.687 102.691 124.66 101.678 124.58C100.691 124.5 99.7715 124.407 98.9181 124.3C99.3181 123.234 99.6648 122.34 99.9581 121.62C100.251 120.9 100.518 120.234 100.758 119.62C100.998 119.007 101.225 118.394 101.438 117.78C101.678 117.14 101.958 116.367 102.278 115.46C103.958 115.967 105.638 116.114 107.318 115.9C108.998 115.66 110.558 115.127 111.998 114.3C112.985 113.714 113.865 113.007 114.638 112.18H111.918C110.718 112.18 109.558 112.18 108.438 112.18C107.318 112.18 106.265 112.194 105.278 112.22C104.291 112.22 103.438 112.234 102.718 112.26C102.931 111.3 103.185 110.327 103.478 109.34C103.798 108.327 104.185 107.26 104.638 106.14C105.358 106.087 106.225 106.047 107.238 106.02C108.251 105.967 109.318 105.927 110.438 105.9C111.558 105.847 112.705 105.807 113.878 105.78C115.078 105.754 116.225 105.727 117.318 105.7H117.638ZM135.069 105.9C136.962 103.687 138.842 101.647 140.709 99.7803C142.602 97.9136 144.575 96.1403 146.629 94.4603C147.882 94.9403 149.015 95.6069 150.029 96.4603C151.069 97.2869 151.975 98.1403 152.749 99.0203C150.402 100.674 148.215 102.394 146.189 104.18C144.162 105.967 142.229 107.727 140.389 109.46C141.322 111.487 142.322 113.62 143.389 115.86C144.482 118.074 145.762 120.5 147.229 123.14C145.949 123.354 144.575 123.634 143.109 123.98C141.669 124.3 140.309 124.647 139.029 125.02C138.015 123.154 137.029 121.154 136.069 119.02C135.109 116.887 134.175 114.74 133.269 112.58C132.895 113.46 132.535 114.42 132.189 115.46C131.842 116.5 131.509 117.54 131.189 118.58C130.869 119.62 130.562 120.634 130.269 121.62C129.975 122.58 129.709 123.434 129.469 124.18C128.375 124.074 127.162 124.02 125.829 124.02C124.495 124.02 123.215 124.047 121.989 124.1C123.215 119.247 124.455 114.487 125.709 109.82C126.962 105.154 128.309 100.407 129.749 95.5803C130.602 95.5269 131.402 95.4869 132.149 95.4603C132.895 95.4069 133.629 95.3803 134.349 95.3803C135.069 95.3803 135.789 95.3803 136.509 95.3803C137.255 95.3803 138.029 95.3936 138.829 95.4203C138.135 97.4469 137.469 99.3136 136.829 101.02C136.189 102.7 135.602 104.327 135.069 105.9ZM154.624 103.5C154.89 102.407 155.17 101.247 155.464 100.02C155.757 98.7669 156.09 97.5803 156.464 96.4603C157.85 95.8469 159.237 95.3936 160.624 95.1003C162.01 94.8069 163.41 94.6336 164.824 94.5803C165.837 94.5536 166.864 94.6203 167.904 94.7803C168.944 94.9403 169.89 95.2469 170.744 95.7003C171.597 96.1536 172.29 96.7936 172.824 97.6203C173.357 98.4203 173.624 99.4469 173.624 100.7C173.624 101.767 173.424 102.74 173.024 103.62C172.65 104.474 172.13 105.234 171.464 105.9C170.797 106.54 170.01 107.087 169.104 107.54C168.197 107.994 167.237 108.354 166.224 108.62C167.344 108.914 168.317 109.407 169.144 110.1C169.97 110.794 170.53 111.647 170.824 112.66C171.197 113.967 171.197 115.407 170.824 116.98C170.477 118.527 169.664 119.98 168.384 121.34C167.264 122.54 165.864 123.447 164.184 124.06C162.504 124.647 160.784 124.954 159.024 124.98C158.17 125.007 157.277 124.94 156.344 124.78C155.41 124.62 154.49 124.367 153.584 124.02C152.704 123.674 151.864 123.22 151.064 122.66C150.264 122.1 149.584 121.42 149.024 120.62C149.69 119.58 150.384 118.58 151.104 117.62C151.824 116.66 152.61 115.674 153.464 114.66C153.65 115.38 153.944 115.98 154.344 116.46C154.744 116.94 155.197 117.327 155.704 117.62C156.21 117.887 156.757 118.074 157.344 118.18C157.93 118.26 158.49 118.287 159.024 118.26C159.904 118.234 160.624 118.1 161.184 117.86C161.77 117.62 162.237 117.327 162.584 116.98C162.93 116.634 163.17 116.247 163.304 115.82C163.437 115.394 163.49 114.954 163.464 114.5C163.437 113.94 163.197 113.474 162.744 113.1C162.317 112.727 161.77 112.434 161.104 112.22C160.464 112.007 159.744 111.874 158.944 111.82C158.144 111.74 157.37 111.74 156.624 111.82C156.757 110.807 156.917 109.86 157.104 108.98C157.29 108.074 157.464 107.287 157.624 106.62C159.544 106.647 161.144 106.54 162.424 106.3C163.73 106.034 164.584 105.394 164.984 104.38C165.277 103.58 165.17 102.874 164.664 102.26C164.157 101.647 163.237 101.314 161.904 101.26C160.677 101.234 159.437 101.42 158.184 101.82C156.957 102.194 155.77 102.754 154.624 103.5ZM178.189 123.82C175.655 123.607 173.255 123.607 170.989 123.82C173.095 119.18 175.255 114.447 177.469 109.62C179.709 104.767 182.029 100.02 184.429 95.3803C186.349 95.0869 188.162 94.9269 189.869 94.9003C191.602 94.8469 193.349 94.8469 195.109 94.9003C195.162 99.7803 195.202 104.687 195.229 109.62C195.282 114.527 195.202 119.34 194.989 124.06C193.789 124.007 192.535 123.98 191.229 123.98C189.949 123.98 188.709 124.047 187.509 124.18C187.562 123.354 187.602 122.514 187.629 121.66C187.655 120.807 187.682 119.954 187.709 119.1C186.562 119.154 185.415 119.194 184.269 119.22C183.149 119.22 181.909 119.274 180.549 119.38C180.175 120.1 179.802 120.834 179.429 121.58C179.055 122.327 178.642 123.074 178.189 123.82ZM182.829 112.26C183.842 112.207 184.829 112.18 185.789 112.18C186.749 112.18 187.775 112.234 188.869 112.34C188.895 110.66 188.869 108.94 188.789 107.18C188.709 105.394 188.615 103.647 188.509 101.94C187.495 103.62 186.522 105.34 185.589 107.1C184.655 108.86 183.735 110.58 182.829 112.26ZM196.791 124.1C197.697 121.54 198.577 119.06 199.431 116.66C200.284 114.26 201.137 111.887 201.991 109.54C202.871 107.194 203.777 104.874 204.711 102.58C205.671 100.26 206.697 97.9136 207.791 95.5403C209.284 95.4069 210.657 95.3403 211.911 95.3403C213.191 95.3403 214.564 95.3936 216.031 95.5003C216.084 96.4336 216.137 97.4336 216.191 98.5003C216.271 99.5669 216.351 100.66 216.431 101.78C216.511 102.874 216.591 103.954 216.671 105.02C216.777 106.087 216.884 107.1 216.991 108.06C218.191 106.14 219.377 104.087 220.551 101.9C221.724 99.7136 222.911 97.6603 224.111 95.7403C224.911 95.6336 225.631 95.5536 226.271 95.5003C226.911 95.4469 227.537 95.4203 228.151 95.4203C228.791 95.3936 229.431 95.3936 230.071 95.4203C230.737 95.4469 231.471 95.4869 232.271 95.5403C231.977 97.8336 231.684 100.194 231.391 102.62C231.124 105.02 230.844 107.447 230.551 109.9C230.284 112.327 230.017 114.727 229.751 117.1C229.484 119.474 229.231 121.754 228.991 123.94C227.711 123.887 226.511 123.887 225.391 123.94C224.271 123.994 223.071 124.047 221.791 124.1C221.844 123.06 221.897 121.94 221.951 120.74C222.004 119.514 222.057 118.287 222.111 117.06C222.164 115.807 222.217 114.58 222.271 113.38C222.351 112.18 222.431 111.06 222.511 110.02C221.231 112.314 219.951 114.66 218.671 117.06C217.417 119.434 216.111 121.74 214.751 123.98C214.244 123.954 213.817 123.94 213.471 123.94C213.124 123.914 212.791 123.9 212.471 123.9C212.177 123.9 211.871 123.914 211.551 123.94C211.231 123.967 210.844 123.994 210.391 124.02C210.284 122.927 210.191 121.794 210.111 120.62C210.031 119.447 209.951 118.26 209.871 117.06C209.817 115.86 209.777 114.674 209.751 113.5C209.724 112.327 209.711 111.194 209.711 110.1C208.457 112.687 207.431 115.14 206.631 117.46C205.831 119.754 205.004 121.98 204.151 124.14C202.871 124.007 201.644 123.954 200.471 123.98C199.297 123.98 198.071 124.02 196.791 124.1ZM244.106 107.86C244.773 107.754 245.519 107.687 246.346 107.66C247.199 107.607 248.053 107.567 248.906 107.54C249.759 107.514 250.586 107.514 251.386 107.54C252.186 107.54 252.893 107.554 253.506 107.58C253.213 108.594 252.933 109.527 252.666 110.38C252.426 111.234 252.119 112.167 251.746 113.18C251.159 113.154 250.453 113.127 249.626 113.1C248.799 113.074 247.946 113.074 247.066 113.1C246.213 113.1 245.373 113.114 244.546 113.14C243.746 113.167 243.053 113.194 242.466 113.22C242.253 113.914 242.039 114.594 241.826 115.26C241.613 115.927 241.399 116.607 241.186 117.3C241.826 117.3 242.586 117.287 243.466 117.26C244.346 117.234 245.253 117.207 246.186 117.18C247.119 117.127 248.039 117.074 248.946 117.02C249.879 116.94 250.719 116.86 251.466 116.78C250.986 118.034 250.479 119.247 249.946 120.42C249.439 121.567 248.866 122.754 248.226 123.98C246.893 124.06 245.479 124.114 243.986 124.14C242.519 124.167 241.066 124.194 239.626 124.22C238.186 124.22 236.813 124.22 235.506 124.22C234.226 124.194 233.119 124.18 232.186 124.18C232.773 121.834 233.346 119.5 233.906 117.18C234.466 114.86 235.039 112.527 235.626 110.18C236.239 107.834 236.879 105.474 237.546 103.1C238.239 100.727 238.986 98.3003 239.786 95.8203C241.173 95.6069 242.679 95.4469 244.306 95.3403C245.959 95.2069 247.626 95.1136 249.306 95.0603C250.986 95.0069 252.639 94.9936 254.266 95.0203C255.919 95.0203 257.426 95.0336 258.786 95.0603C258.253 96.3669 257.719 97.7003 257.186 99.0603C256.679 100.42 256.173 101.767 255.666 103.1C254.999 103.074 254.226 103.06 253.346 103.06C252.493 103.06 251.599 103.074 250.666 103.1C249.733 103.127 248.813 103.167 247.906 103.22C247.026 103.247 246.226 103.3 245.506 103.38C245.266 104.1 245.026 104.847 244.786 105.62C244.546 106.367 244.319 107.114 244.106 107.86ZM270.014 95.2203C269.401 97.1403 268.801 99.0869 268.214 101.06C267.654 103.034 267.094 104.98 266.534 106.9C267.654 106.82 268.801 106.754 269.974 106.7C271.174 106.647 272.254 106.607 273.214 106.58C273.694 104.74 274.188 102.927 274.694 101.14C275.201 99.3269 275.734 97.4869 276.294 95.6203C277.681 95.4069 279.041 95.3003 280.374 95.3003C281.708 95.3003 283.081 95.3536 284.494 95.4603C282.948 100.287 281.534 105.034 280.254 109.7C278.974 114.34 277.694 119.074 276.414 123.9C275.188 123.767 273.948 123.727 272.694 123.78C271.468 123.807 270.254 123.847 269.054 123.9C269.401 122.434 269.734 120.927 270.054 119.38C270.374 117.834 270.721 116.327 271.094 114.86C270.054 114.807 268.921 114.794 267.694 114.82C266.468 114.847 265.321 114.874 264.254 114.9C263.854 116.447 263.454 117.98 263.054 119.5C262.654 121.02 262.241 122.54 261.814 124.06C260.561 123.954 259.294 123.927 258.014 123.98C256.734 124.007 255.508 124.06 254.334 124.14C255.348 119.554 256.414 114.874 257.534 110.1C258.681 105.3 259.934 100.434 261.294 95.5003C262.681 95.2869 264.121 95.1669 265.614 95.1403C267.134 95.1136 268.601 95.1403 270.014 95.2203ZM286.626 123.82C284.093 123.607 281.693 123.607 279.426 123.82C281.533 119.18 283.693 114.447 285.906 109.62C288.146 104.767 290.466 100.02 292.866 95.3803C294.786 95.0869 296.6 94.9269 298.306 94.9003C300.04 94.8469 301.786 94.8469 303.546 94.9003C303.6 99.7803 303.64 104.687 303.666 109.62C303.72 114.527 303.64 119.34 303.426 124.06C302.226 124.007 300.973 123.98 299.666 123.98C298.386 123.98 297.146 124.047 295.946 124.18C296 123.354 296.04 122.514 296.066 121.66C296.093 120.807 296.12 119.954 296.146 119.1C295 119.154 293.853 119.194 292.706 119.22C291.586 119.22 290.346 119.274 288.986 119.38C288.613 120.1 288.24 120.834 287.866 121.58C287.493 122.327 287.08 123.074 286.626 123.82ZM291.266 112.26C292.28 112.207 293.266 112.18 294.226 112.18C295.186 112.18 296.213 112.234 297.306 112.34C297.333 110.66 297.306 108.94 297.226 107.18C297.146 105.394 297.053 103.647 296.946 101.94C295.933 103.62 294.96 105.34 294.026 107.1C293.093 108.86 292.173 110.58 291.266 112.26ZM312.068 95.3803C313.668 95.2469 315.348 95.1403 317.108 95.0603C318.868 94.9803 320.655 94.9269 322.468 94.9003C324.281 94.8469 326.095 94.8336 327.908 94.8603C329.748 94.8869 331.548 94.9536 333.308 95.0603C332.881 96.5003 332.468 97.9136 332.068 99.3003C331.695 100.66 331.361 102.02 331.068 103.38C330.135 103.327 329.135 103.3 328.068 103.3C327.028 103.274 325.961 103.287 324.868 103.34C324.388 104.994 323.881 106.687 323.348 108.42C322.841 110.154 322.321 111.9 321.788 113.66C321.281 115.42 320.775 117.18 320.268 118.94C319.761 120.674 319.295 122.354 318.868 123.98C317.668 123.874 316.388 123.834 315.028 123.86C313.695 123.887 312.428 123.954 311.228 124.06C311.628 122.487 312.028 120.847 312.428 119.14C312.855 117.434 313.268 115.7 313.668 113.94C314.095 112.154 314.521 110.38 314.948 108.62C315.375 106.834 315.815 105.087 316.268 103.38C315.255 103.327 314.201 103.327 313.108 103.38C312.015 103.407 310.961 103.447 309.948 103.5C310.161 102.167 310.428 100.82 310.748 99.4603C311.095 98.1003 311.535 96.7403 312.068 95.3803ZM346.39 103.7C345.51 103.7 344.684 103.9 343.91 104.3C343.164 104.7 342.484 105.234 341.87 105.9C341.284 106.567 340.777 107.327 340.35 108.18C339.924 109.034 339.604 109.914 339.39 110.82C339.15 111.674 339.057 112.514 339.11 113.34C339.19 114.14 339.377 114.874 339.67 115.54C339.99 116.18 340.417 116.7 340.95 117.1C341.51 117.5 342.164 117.687 342.91 117.66C343.657 117.634 344.404 117.42 345.15 117.02C345.924 116.594 346.63 116.06 347.27 115.42C347.937 114.754 348.51 113.994 348.99 113.14C349.497 112.26 349.87 111.34 350.11 110.38C350.324 109.474 350.404 108.62 350.35 107.82C350.297 106.994 350.11 106.274 349.79 105.66C349.497 105.047 349.057 104.567 348.47 104.22C347.91 103.874 347.217 103.7 346.39 103.7ZM348.55 94.5403C350.63 94.5136 352.417 94.8736 353.91 95.6203C355.404 96.3669 356.577 97.3936 357.43 98.7003C358.31 100.007 358.857 101.567 359.07 103.38C359.284 105.167 359.164 107.114 358.71 109.22C358.204 111.567 357.417 113.7 356.35 115.62C355.284 117.54 353.99 119.194 352.47 120.58C350.95 121.94 349.217 123.007 347.27 123.78C345.324 124.527 343.217 124.9 340.95 124.9C339.03 124.9 337.377 124.514 335.99 123.74C334.604 122.94 333.497 121.874 332.67 120.54C331.87 119.207 331.35 117.66 331.11 115.9C330.87 114.114 330.937 112.234 331.31 110.26C331.79 107.7 332.577 105.447 333.67 103.5C334.764 101.554 336.07 99.9269 337.59 98.6203C339.137 97.2869 340.844 96.2869 342.71 95.6203C344.577 94.9269 346.524 94.5669 348.55 94.5403ZM358.948 124.14C360.228 119.474 361.508 114.82 362.788 110.18C364.068 105.514 365.535 100.74 367.188 95.8603C367.722 95.7003 368.335 95.5269 369.028 95.3403C369.748 95.1536 370.522 94.9936 371.348 94.8603C372.175 94.7269 373.028 94.6203 373.908 94.5403C374.788 94.4603 375.668 94.4336 376.548 94.4603C377.188 94.4869 377.895 94.5269 378.668 94.5803C379.442 94.6336 380.215 94.7669 380.988 94.9803C381.788 95.1669 382.548 95.4469 383.268 95.8203C384.015 96.1669 384.668 96.6469 385.228 97.2603C385.815 97.8469 386.282 98.5936 386.628 99.5003C386.975 100.407 387.162 101.5 387.188 102.78C387.188 104.834 386.775 106.767 385.948 108.58C385.122 110.394 383.922 111.94 382.348 113.22C380.775 114.5 378.842 115.447 376.548 116.06C374.282 116.674 371.695 116.78 368.788 116.38C368.442 117.394 368.148 118.234 367.908 118.9C367.695 119.567 367.495 120.167 367.308 120.7C367.122 121.234 366.935 121.754 366.748 122.26C366.562 122.767 366.335 123.354 366.068 124.02C365.055 124.02 363.895 124.02 362.588 124.02C361.282 124.02 360.068 124.06 358.948 124.14ZM370.868 109.66C372.095 109.82 373.215 109.794 374.228 109.58C375.268 109.367 376.135 108.967 376.828 108.38C377.335 107.9 377.762 107.3 378.108 106.58C378.455 105.86 378.655 105.154 378.708 104.46C378.762 103.74 378.628 103.1 378.308 102.54C377.988 101.98 377.415 101.634 376.588 101.5C376.082 101.447 375.508 101.46 374.868 101.54C374.255 101.594 373.628 101.767 372.988 102.06C372.615 103.314 372.255 104.58 371.908 105.86C371.588 107.114 371.242 108.38 370.868 109.66ZM391.743 123.82C389.21 123.607 386.81 123.607 384.543 123.82C386.65 119.18 388.81 114.447 391.023 109.62C393.263 104.767 395.583 100.02 397.983 95.3803C399.903 95.0869 401.717 94.9269 403.423 94.9003C405.157 94.8469 406.903 94.8469 408.663 94.9003C408.717 99.7803 408.757 104.687 408.783 109.62C408.837 114.527 408.757 119.34 408.543 124.06C407.343 124.007 406.09 123.98 404.783 123.98C403.503 123.98 402.263 124.047 401.063 124.18C401.117 123.354 401.157 122.514 401.183 121.66C401.21 120.807 401.237 119.954 401.263 119.1C400.117 119.154 398.97 119.194 397.823 119.22C396.703 119.22 395.463 119.274 394.103 119.38C393.73 120.1 393.357 120.834 392.983 121.58C392.61 122.327 392.197 123.074 391.743 123.82ZM396.383 112.26C397.397 112.207 398.383 112.18 399.343 112.18C400.303 112.18 401.33 112.234 402.423 112.34C402.45 110.66 402.423 108.94 402.343 107.18C402.263 105.394 402.17 103.647 402.063 101.94C401.05 103.62 400.077 105.34 399.143 107.1C398.21 108.86 397.29 110.58 396.383 112.26Z" fill="black"/>
    </g>
    <path d="M47.04 20.6C43.68 19.5867 40.32 19.32 36.96 19.8C33.6 20.2267 30.48 21.2667 27.6 22.92C24.7733 24.5733 22.3467 26.76 20.32 29.48C18.3467 32.2 17.04 35.32 16.4 38.84C16.1333 40.6533 16.4267 42.44 17.28 44.2C18.1333 45.96 19.7067 47.1333 22 47.72C23.28 47.9867 24.6133 48.1467 26 48.2C27.3867 48.2533 28.9067 48.1467 30.56 47.88C32.2667 47.56 34.16 47.0533 36.24 46.36C38.32 45.6133 40.72 44.5733 43.44 43.24C42.8 44.9467 42.2133 46.4133 41.68 47.64C41.2 48.8133 40.6933 49.9333 40.16 51C39.6267 52.0667 39.0133 53.16 38.32 54.28C37.68 55.4 36.88 56.7067 35.92 58.2C33.9467 59.2667 31.8133 60.0133 29.52 60.44C27.2267 60.8667 25.1467 61.1333 23.28 61.24C19.44 61.2933 16.0267 60.7067 13.04 59.48C10.0533 58.2 7.57333 56.4667 5.6 54.28C3.62667 52.0933 2.21333 49.48 1.36 46.44C0.506667 43.4 0.293334 40.0933 0.72 36.52C1.2 32.5733 2.24 28.8667 3.84 25.4C5.49333 21.9333 7.52 18.8133 9.92 16.04C12.3733 13.2133 15.1467 10.7867 18.24 8.76C21.3867 6.73333 24.72 5.18666 28.24 4.12C30.5333 3.42666 32.8267 2.94666 35.12 2.68C37.4667 2.36 39.7333 2.2 41.92 2.2C44.1067 2.14666 46.1867 2.2 48.16 2.36C50.1867 2.52 52.0533 2.70667 53.76 2.92C52.96 5.05333 52.2667 6.84 51.68 8.28C51.0933 9.72 50.56 11.0533 50.08 12.28C49.6 13.5067 49.12 14.76 48.64 16.04C48.2133 17.2667 47.68 18.7867 47.04 20.6ZM87.7413 17.56C87.5279 17.08 87.2079 16.7067 86.7813 16.44C86.3013 16.1733 85.7413 16.0133 85.1013 15.96C84.4613 15.9067 83.8479 15.88 83.2613 15.88C82.1413 15.9333 81.1546 16.04 80.3013 16.2C79.5013 16.36 78.7813 16.6533 78.1413 17.08C77.5013 17.5067 76.9413 18.0933 76.4613 18.84C76.0346 19.5333 75.6346 20.44 75.2613 21.56C74.3546 24.1733 73.3946 27.1867 72.3813 30.6C71.4213 33.96 70.4879 37.4267 69.5813 41C68.6746 44.52 67.8213 47.9867 67.0213 51.4C66.2213 54.8133 65.5279 57.9067 64.9413 60.68C61.4746 60.9467 58.4079 61.0533 55.7413 61C53.0746 61 50.3279 60.8667 47.5013 60.6C47.5013 60.4933 47.5279 60.4133 47.5813 60.36C46.9946 60.3067 46.4346 60.28 45.9013 60.28C47.5546 55.32 49.1279 50.4133 50.6213 45.56C52.1146 40.7067 53.5546 35.9067 54.9413 31.16C56.3279 26.4133 57.6879 21.64 59.0213 16.84C60.4079 12.04 61.8213 7.13333 63.2613 2.12C65.8213 2.38666 68.4346 2.52 71.1013 2.52C73.7679 2.52 76.3813 2.38666 78.9413 2.12C78.9413 2.17333 78.9146 2.22667 78.8613 2.28C81.3146 2.06666 83.9813 1.96 86.8612 1.96C88.7813 1.96 90.5413 2.09333 92.1413 2.36V2.28C94.7013 2.54666 97.3146 2.68 99.9813 2.68C102.648 2.68 105.261 2.54666 107.821 2.28C106.755 7.08 105.661 11.8 104.541 16.44C103.421 21.08 102.248 25.7467 101.021 30.44C99.7946 35.1333 98.4879 39.8533 97.1013 44.6C95.7679 49.24 94.3013 53.9867 92.7013 58.84C92.5946 59.1067 92.5146 59.3467 92.4613 59.56C91.2879 59.6667 90.1146 59.7467 88.9413 59.8C87.2346 60.0133 85.4746 60.12 83.6613 60.12C80.6213 60.1733 77.6613 60.1467 74.7813 60.04C76.4346 55.08 78.0079 50.2 79.5013 45.4C80.9946 40.6 82.4346 35.8267 83.8213 31.08C85.1546 26.6 86.4613 22.0933 87.7413 17.56ZM114.256 59.48C109.189 59.0533 104.389 59.0533 99.8556 59.48C104.069 50.2 108.389 40.7333 112.816 31.08C117.296 21.3733 121.936 11.88 126.736 2.6C130.576 2.01333 134.202 1.69333 137.616 1.64C141.082 1.53333 144.576 1.53333 148.096 1.64C148.202 11.4 148.282 21.2133 148.336 31.08C148.442 40.8933 148.282 50.52 147.856 59.96C145.456 59.8533 142.949 59.8 140.336 59.8C137.776 59.8 135.296 59.9333 132.896 60.2C133.002 58.5467 133.082 56.8667 133.136 55.16C133.189 53.4533 133.242 51.7467 133.296 50.04C131.002 50.1467 128.709 50.2267 126.416 50.28C124.176 50.28 121.696 50.3867 118.976 50.6C118.229 52.04 117.482 53.5067 116.736 55C115.989 56.4933 115.162 57.9867 114.256 59.48ZM123.536 36.36C125.562 36.2533 127.536 36.2 129.456 36.2C131.376 36.2 133.429 36.3067 135.616 36.52C135.669 33.16 135.616 29.72 135.456 26.2C135.296 22.6267 135.109 19.1333 134.896 15.72C132.869 19.08 130.922 22.52 129.056 26.04C127.189 29.56 125.349 33 123.536 36.36ZM202.899 20.6C199.539 19.5867 196.179 19.32 192.819 19.8C189.459 20.2267 186.339 21.2667 183.459 22.92C180.633 24.5733 178.206 26.76 176.179 29.48C174.206 32.2 172.899 35.32 172.259 38.84C171.993 40.6533 172.286 42.44 173.139 44.2C173.993 45.96 175.566 47.1333 177.859 47.72C179.139 47.9867 180.473 48.1467 181.859 48.2C183.246 48.2533 184.766 48.1467 186.419 47.88C188.126 47.56 190.019 47.0533 192.099 46.36C194.179 45.6133 196.579 44.5733 199.299 43.24C198.659 44.9467 198.073 46.4133 197.539 47.64C197.059 48.8133 196.553 49.9333 196.019 51C195.486 52.0667 194.873 53.16 194.179 54.28C193.539 55.4 192.739 56.7067 191.779 58.2C189.806 59.2667 187.673 60.0133 185.379 60.44C183.086 60.8667 181.006 61.1333 179.139 61.24C175.299 61.2933 171.886 60.7067 168.899 59.48C165.913 58.2 163.433 56.4667 161.459 54.28C159.486 52.0933 158.073 49.48 157.219 46.44C156.366 43.4 156.153 40.0933 156.579 36.52C157.059 32.5733 158.099 28.8667 159.699 25.4C161.353 21.9333 163.379 18.8133 165.779 16.04C168.233 13.2133 171.006 10.7867 174.099 8.76C177.246 6.73333 180.579 5.18666 184.099 4.12C186.393 3.42666 188.686 2.94666 190.979 2.68C193.326 2.36 195.593 2.2 197.779 2.2C199.966 2.14666 202.046 2.2 204.019 2.36C206.046 2.52 207.913 2.70667 209.619 2.92C208.819 5.05333 208.126 6.84 207.539 8.28C206.953 9.72 206.419 11.0533 205.939 12.28C205.459 13.5067 204.979 14.76 204.499 16.04C204.073 17.2667 203.539 18.7867 202.899 20.6ZM241.521 30.36C240.294 31.8 239.041 33.24 237.761 34.68C234.721 38.2533 231.814 41.64 229.041 44.84C226.321 48.04 223.867 50.92 221.681 53.48C220.401 54.92 219.307 56.1467 218.401 57.16C218.241 57.8533 218.107 58.4667 218.001 59C217.574 59.0533 217.174 59.08 216.801 59.08L216.721 59.16V59.08C214.854 59.1867 212.987 59.24 211.121 59.24C208.881 59.2933 206.614 59.24 204.321 59.08C204.641 57.8 205.094 55.72 205.681 52.84C206.321 49.96 207.067 46.7067 207.921 43.08C208.774 39.4533 209.707 35.6133 210.721 31.56C211.734 27.5067 212.721 23.6133 213.681 19.88C214.694 16.1467 215.627 12.7867 216.481 9.8C217.334 6.81333 218.027 4.54666 218.561 3C221.067 2.62666 223.387 2.41333 225.521 2.36C227.707 2.25333 229.841 2.22667 231.921 2.28C231.441 3.82666 230.801 6.12 230.001 9.16C229.254 12.1467 228.427 15.48 227.521 19.16C226.774 22.36 225.974 25.6933 225.121 29.16C225.601 28.6267 226.081 28.0933 226.561 27.56C229.601 24.04 232.534 20.7067 235.361 17.56C238.241 14.36 240.854 11.5067 243.201 9C245.174 6.86666 246.774 5.18666 248.001 3.96C248.107 3.64 248.187 3.37333 248.241 3.16C250.747 2.78666 253.067 2.52 255.201 2.36C257.387 2.14666 259.494 2.06666 261.521 2.12C261.147 3.72 260.587 6.01333 259.841 9C259.147 11.9867 258.401 15.3467 257.601 19.08C256.854 22.8133 256.027 26.7333 255.121 30.84C254.214 34.9467 253.387 38.8667 252.641 42.6C251.894 46.3333 251.201 49.6667 250.561 52.6C249.921 55.5333 249.441 57.7467 249.121 59.24C246.827 59.4533 244.534 59.6133 242.241 59.72C239.947 59.7733 237.681 59.7467 235.441 59.64C235.654 58.36 236.054 56.28 236.641 53.4C237.227 50.52 237.894 47.2667 238.641 43.64C239.387 39.96 240.241 36.0667 241.201 31.96C241.307 31.4267 241.414 30.8933 241.521 30.36ZM273.491 60.04C275.304 54.92 277.064 49.96 278.771 45.16C280.477 40.36 282.184 35.6133 283.891 30.92C285.651 26.2267 287.464 21.5867 289.331 17C291.251 12.36 293.304 7.66667 295.491 2.92C298.477 2.65333 301.224 2.52 303.731 2.52C306.291 2.52 309.037 2.62666 311.971 2.84C312.077 4.70666 312.184 6.70666 312.291 8.84C312.451 10.9733 312.611 13.16 312.771 15.4C312.931 17.5867 313.091 19.7467 313.251 21.88C313.464 24.0133 313.677 26.04 313.891 27.96C316.291 24.12 318.664 20.0133 321.011 15.64C323.357 11.2667 325.731 7.16 328.131 3.32C329.731 3.10666 331.171 2.94666 332.451 2.84C333.731 2.73333 334.984 2.68 336.211 2.68C337.491 2.62666 338.771 2.62666 340.051 2.68C341.384 2.73333 342.851 2.81333 344.451 2.92C343.864 7.50666 343.277 12.2267 342.691 17.08C342.157 21.88 341.597 26.7333 341.011 31.64C340.477 36.4933 339.944 41.2933 339.411 46.04C338.877 50.7867 338.371 55.3467 337.891 59.72C335.331 59.6133 332.931 59.6133 330.691 59.72C328.451 59.8267 326.051 59.9333 323.491 60.04C323.597 57.96 323.704 55.72 323.811 53.32C323.917 50.8667 324.024 48.4133 324.131 45.96C324.237 43.4533 324.344 41 324.451 38.6C324.611 36.2 324.771 33.96 324.931 31.88C322.371 36.4667 319.811 41.16 317.251 45.96C314.744 50.7067 312.131 55.32 309.411 59.8C308.397 59.7467 307.544 59.72 306.851 59.72C306.157 59.6667 305.491 59.64 304.851 59.64C304.264 59.64 303.651 59.6667 303.011 59.72C302.371 59.7733 301.597 59.8267 300.691 59.88C300.477 57.6933 300.291 55.4267 300.131 53.08C299.971 50.7333 299.811 48.36 299.651 45.96C299.544 43.56 299.464 41.1867 299.411 38.84C299.357 36.4933 299.331 34.2267 299.331 32.04C296.824 37.2133 294.771 42.12 293.171 46.76C291.571 51.3467 289.917 55.8 288.211 60.12C285.651 59.8533 283.197 59.7467 280.851 59.8C278.504 59.8 276.051 59.88 273.491 60.04ZM383.161 30.36C381.935 31.8 380.681 33.24 379.401 34.68C376.361 38.2533 373.455 41.64 370.681 44.84C367.961 48.04 365.508 50.92 363.321 53.48C362.041 54.92 360.948 56.1467 360.041 57.16C359.881 57.8533 359.748 58.4667 359.641 59C359.215 59.0533 358.815 59.08 358.441 59.08L358.361 59.16V59.08C356.495 59.1867 354.628 59.24 352.761 59.24C350.521 59.2933 348.255 59.24 345.961 59.08C346.281 57.8 346.735 55.72 347.321 52.84C347.961 49.96 348.708 46.7067 349.561 43.08C350.415 39.4533 351.348 35.6133 352.361 31.56C353.375 27.5067 354.361 23.6133 355.321 19.88C356.335 16.1467 357.268 12.7867 358.121 9.8C358.975 6.81333 359.668 4.54666 360.201 3C362.708 2.62666 365.028 2.41333 367.161 2.36C369.348 2.25333 371.481 2.22667 373.561 2.28C373.081 3.82666 372.441 6.12 371.641 9.16C370.895 12.1467 370.068 15.48 369.161 19.16C368.415 22.36 367.615 25.6933 366.761 29.16C367.241 28.6267 367.721 28.0933 368.201 27.56C371.241 24.04 374.175 20.7067 377.001 17.56C379.881 14.36 382.495 11.5067 384.841 9C386.815 6.86666 388.415 5.18666 389.641 3.96C389.748 3.64 389.828 3.37333 389.881 3.16C392.388 2.78666 394.708 2.52 396.841 2.36C399.028 2.14666 401.135 2.06666 403.161 2.12C402.788 3.72 402.228 6.01333 401.481 9C400.788 11.9867 400.041 15.3467 399.241 19.08C398.495 22.8133 397.668 26.7333 396.761 30.84C395.855 34.9467 395.028 38.8667 394.281 42.6C393.535 46.3333 392.841 49.6667 392.201 52.6C391.561 55.5333 391.081 57.7467 390.761 59.24C388.468 59.4533 386.175 59.6133 383.881 59.72C381.588 59.7733 379.321 59.7467 377.081 59.64C377.295 58.36 377.695 56.28 378.281 53.4C378.868 50.52 379.535 47.2667 380.281 43.64C381.028 39.96 381.881 36.0667 382.841 31.96C382.948 31.4267 383.055 30.8933 383.161 30.36ZM399.916 60.12C402.476 50.7867 405.036 41.48 407.596 32.2C410.156 22.8667 413.089 13.32 416.396 3.56C417.462 3.24 418.689 2.89333 420.076 2.52C421.516 2.14666 423.062 1.82666 424.716 1.56C426.369 1.29333 428.076 1.08 429.836 0.919996C431.596 0.759998 433.356 0.706666 435.116 0.759998C436.396 0.813331 437.809 0.89333 439.356 0.999995C440.902 1.10666 442.449 1.37333 443.996 1.8C445.596 2.17333 447.116 2.73333 448.556 3.48C450.049 4.17333 451.356 5.13333 452.476 6.36C453.649 7.53333 454.582 9.02667 455.276 10.84C455.969 12.6533 456.342 14.84 456.396 17.4C456.396 21.5067 455.569 25.3733 453.916 29C452.262 32.6267 449.862 35.72 446.716 38.28C443.569 40.84 439.702 42.7333 435.116 43.96C430.582 45.1867 425.409 45.4 419.596 44.6C418.902 46.6267 418.316 48.3067 417.836 49.64C417.409 50.9733 417.009 52.1733 416.636 53.24C416.262 54.3067 415.889 55.3467 415.516 56.36C415.142 57.3733 414.689 58.5467 414.156 59.88C412.129 59.88 409.809 59.88 407.196 59.88C404.582 59.88 402.156 59.96 399.916 60.12ZM423.756 31.16C426.209 31.48 428.449 31.4267 430.476 31C432.556 30.5733 434.289 29.7733 435.676 28.6C436.689 27.64 437.542 26.44 438.236 25C438.929 23.56 439.329 22.1467 439.436 20.76C439.542 19.32 439.276 18.04 438.636 16.92C437.996 15.8 436.849 15.1067 435.196 14.84C434.182 14.7333 433.036 14.76 431.756 14.92C430.529 15.0267 429.276 15.3733 427.996 15.96C427.249 18.4667 426.529 21 425.836 23.56C425.196 26.0667 424.502 28.6 423.756 31.16Z" fill="url(#paint0_linear_2054_346)"/>
    <defs>
        <linearGradient id="paint0_linear_2054_346" x1="-8" y1="41" x2="450" y2="41" gradientUnits="userSpaceOnUse">
            <stop stop-color="#C18859"/>
            <stop offset="1" stop-color="#FFE79A"/>
        </linearGradient>
        <clipPath id="clip0_2054_346">
            <rect width="440.7" height="71.1" fill="white" transform="translate(1 77.0303)"/>
        </clipPath>
    </defs>
</svg>