<svg width="118" height="120" viewBox="0 0 118 120" fill="none" xmlns="http://www.w3.org/2000/svg">
    <path fill-rule="evenodd" clip-rule="evenodd" d="M8.86837 9.30917C0.864463 17.4155 0.625016 30.3146 0.617859 55.635C23.0222 55.6349 37.0104 45.8933 49.2803 37.3481C58.8659 30.6726 67.4028 24.7273 78.0846 24.7273C93.9835 24.7273 107.865 36.1125 115.226 42.1495C116.264 43.0008 117.173 43.7458 117.939 44.3374C117.707 26.2846 116.456 16.1101 109.741 9.30917C101.49 0.952885 88.211 0.952884 61.6521 0.952881L56.9572 0.952881C30.3985 0.952888 17.1191 0.952887 8.86837 9.30917ZM53.5065 119.828C54.6312 119.829 55.7812 119.829 56.9573 119.829H61.6521C62.8281 119.829 63.9781 119.829 65.1027 119.828H53.5065Z" fill="#0077FF"/>
    <path fill-rule="evenodd" clip-rule="evenodd" d="M0.618083 55.6352C23.0224 55.6351 37.0106 45.8935 49.2806 37.3483C58.8661 30.6729 67.403 24.7275 78.0848 24.7275C93.9837 24.7275 107.866 36.1127 115.226 42.1497C116.264 43.001 117.173 43.746 117.939 44.3376C117.992 48.4662 117.992 53.0069 117.992 58.0135V62.7685C117.992 89.667 117.992 103.116 109.741 111.473C101.856 119.459 89.377 119.812 65.1021 119.828H53.5076C29.2328 119.812 16.7541 119.459 8.8686 111.473C0.617856 103.116 0.617857 89.667 0.617859 62.7685L0.61786 58.0135C0.61786 57.2088 0.61786 56.4161 0.618083 55.6352Z" fill="#F45FFF"/>
    <path d="M91.5833 61.5497C91.5833 58.6117 93.9642 56.23 96.8651 56.23C99.766 56.23 102.147 58.6117 102.147 61.5497V83.0067C102.147 85.9446 99.766 88.3264 96.8651 88.3264C93.9642 88.3264 91.5833 85.9446 91.5833 83.0067V61.5497Z" fill="white"/>
    <path d="M72.8041 47.8795C72.8041 44.9415 75.1851 42.5598 78.086 42.5598C80.9869 42.5598 83.3678 44.9415 83.3678 47.8795V96.678C83.3678 99.616 80.9869 101.998 78.086 101.998C75.1851 101.998 72.8041 99.616 72.8041 96.678V47.8795Z" fill="white"/>
    <path d="M54.024 61.5497C54.024 58.6117 56.405 56.23 59.3059 56.23C62.2068 56.23 64.5877 58.6117 64.5877 61.5497V83.0067C64.5877 85.9446 62.2068 88.3264 59.3059 88.3264C56.405 88.3264 54.024 85.9446 54.024 83.0067V61.5497Z" fill="white"/>
    <path d="M35.2419 69.277C35.2419 66.3389 37.6229 63.9573 40.5237 63.9573C43.4246 63.9573 45.8056 66.3389 45.8056 69.277V75.2802C45.8056 78.2182 43.4246 80.5999 40.5237 80.5999C37.6229 80.5999 35.2419 78.2182 35.2419 75.2802V69.277Z" fill="white"/>
    <path d="M16.4621 69.277C16.4621 66.3389 18.8432 63.9573 21.7439 63.9573C24.6448 63.9573 27.0258 66.3389 27.0258 69.277V75.2802C27.0258 78.2182 24.6448 80.5999 21.7439 80.5999C18.8432 80.5999 16.4621 78.2182 16.4621 75.2802V69.277Z" fill="white"/>
</svg>
