<svg width="103" height="34" viewBox="0 0 103 34" fill="none" xmlns="http://www.w3.org/2000/svg">
<g filter="url(#filter0_d_3583_750)">
<path d="M6.1827 11.1726C8.06404 11.0593 9.83204 10.9913 11.4867 10.9686C13.164 10.9233 14.7847 10.9119 16.3487 10.9346C16.1674 11.8413 15.952 12.7479 15.7027 13.6546C15.4534 14.5613 15.1814 15.4566 14.8867 16.3406C13.1867 16.3406 11.498 16.3293 9.8207 16.3066C8.14337 16.2839 6.3867 16.3066 4.5507 16.3746C4.73204 15.5586 4.94737 14.7313 5.1967 13.8926C5.4687 13.0313 5.79737 12.1246 6.1827 11.1726ZM17.8022 6.48062C18.2782 5.86862 18.7315 5.31328 19.1622 4.81462C19.5929 4.29328 20.0235 3.80595 20.4542 3.35262C20.8849 2.89928 21.3269 2.45728 21.7802 2.02661C22.2335 1.57328 22.7209 1.11995 23.2422 0.666616C24.3302 0.553282 25.4975 0.496616 26.7442 0.496616C28.0135 0.496616 29.1922 0.553282 30.2802 0.666616C29.6455 2.63862 29.0222 4.66728 28.4102 6.75261C27.8209 8.83795 27.2429 10.9233 26.6762 13.0086C26.1095 15.0939 25.5655 17.1679 25.0442 19.2306C24.5455 21.2706 24.0695 23.2426 23.6162 25.1466C23.0042 25.1239 22.4489 25.1013 21.9502 25.0786C21.4515 25.0559 20.9642 25.0446 20.4882 25.0446C20.0122 25.0446 19.5135 25.0559 18.9922 25.0786C18.4935 25.1013 17.9155 25.1353 17.2582 25.1806C17.5529 23.8659 17.8702 22.3926 18.2102 20.7606C18.5729 19.1059 18.9355 17.4286 19.2982 15.7286C19.6609 14.0286 20.0235 12.3739 20.3862 10.7646C20.7715 9.15528 21.1569 7.73862 21.5422 6.51462C21.1569 6.51462 20.8055 6.51462 20.4882 6.51462C20.1935 6.49195 19.9102 6.48062 19.6382 6.48062C19.3662 6.48062 19.0829 6.48062 18.7882 6.48062C18.4935 6.48062 18.1649 6.48062 17.8022 6.48062ZM42.649 7.12662C41.901 7.10395 41.2324 7.26262 40.643 7.60262C40.0537 7.94262 39.5324 8.39595 39.079 8.96262C38.6257 9.52928 38.229 10.1753 37.889 10.9006C37.5717 11.6259 37.2997 12.3739 37.073 13.1446C36.869 13.8473 36.7557 14.5839 36.733 15.3546C36.7104 16.1253 36.767 16.8393 36.903 17.4966C37.0617 18.1313 37.2997 18.6639 37.617 19.0946C37.957 19.5253 38.399 19.7633 38.943 19.8086C39.623 19.8766 40.2577 19.7406 40.847 19.4006C41.459 19.0606 42.003 18.5959 42.479 18.0066C42.9777 17.4173 43.4084 16.7373 43.771 15.9666C44.1564 15.1733 44.485 14.3459 44.757 13.4846C44.961 12.7139 45.0857 11.9546 45.131 11.2066C45.199 10.4586 45.1537 9.78995 44.995 9.20062C44.859 8.61128 44.5984 8.12395 44.213 7.73862C43.8504 7.35328 43.329 7.14928 42.649 7.12662ZM44.315 0.224615C46.1737 0.269948 47.681 0.689281 48.837 1.48262C50.0157 2.27595 50.8884 3.30728 51.455 4.57662C52.0444 5.82328 52.3617 7.22862 52.407 8.79262C52.4524 10.3566 52.2937 11.9319 51.931 13.5186C51.523 15.3546 50.8884 17.0546 50.027 18.6186C49.1657 20.1826 48.1117 21.5199 46.865 22.6306C45.6184 23.7186 44.179 24.5459 42.547 25.1126C40.9377 25.6793 39.147 25.8833 37.175 25.7246C35.6337 25.6113 34.3077 25.1126 33.197 24.2286C32.109 23.3446 31.2704 22.2226 30.681 20.8626C30.0917 19.5026 29.7744 17.9613 29.729 16.2386C29.7064 14.5159 29.9897 12.7593 30.579 10.9686C31.803 7.25128 33.5597 4.50862 35.849 2.74062C38.161 0.949949 40.983 0.111282 44.315 0.224615ZM65.237 0.700615C64.7157 2.33261 64.2057 3.98728 63.707 5.66462C63.231 7.34195 62.755 8.99662 62.279 10.6286C63.231 10.5606 64.2057 10.5039 65.203 10.4586C66.223 10.4133 67.141 10.3793 67.957 10.3566C68.365 8.79261 68.7843 7.25128 69.215 5.73262C69.6457 4.19128 70.099 2.62728 70.575 1.04061C71.7537 0.859281 72.9097 0.768614 74.043 0.768614C75.1763 0.768614 76.3437 0.813948 77.545 0.904615C76.2303 5.00728 75.029 9.04195 73.941 13.0086C72.853 16.9526 71.765 20.9759 70.677 25.0786C69.6343 24.9653 68.5803 24.9313 67.515 24.9766C66.4723 24.9993 65.441 25.0333 64.421 25.0786C64.7157 23.8319 64.999 22.5513 65.271 21.2366C65.543 19.9219 65.8377 18.6413 66.155 17.3946C65.271 17.3493 64.3077 17.3379 63.265 17.3606C62.2223 17.3833 61.2477 17.4059 60.341 17.4286C60.001 18.7433 59.661 20.0466 59.321 21.3386C58.981 22.6306 58.6297 23.9226 58.267 25.2146C57.2017 25.1239 56.125 25.1013 55.037 25.1466C53.949 25.1693 52.9063 25.2146 51.909 25.2826C52.7703 21.3839 53.677 17.4059 54.629 13.3486C55.6037 9.26861 56.669 5.13195 57.825 0.938614C59.0037 0.757282 60.2277 0.655282 61.497 0.632614C62.789 0.609948 64.0357 0.632615 65.237 0.700615ZM74.3251 25.2826C75.4131 21.3159 76.5011 17.3606 77.5891 13.4166C78.6771 9.44995 79.9237 5.39262 81.3291 1.24461C81.7824 1.10861 82.3037 0.961282 82.8931 0.802616C83.5051 0.643949 84.1624 0.507948 84.8651 0.394615C85.5677 0.281282 86.2931 0.190615 87.0411 0.122615C87.7891 0.0546155 88.5371 0.0319491 89.2851 0.0546155C89.8291 0.0772819 90.4297 0.111281 91.0871 0.156614C91.7444 0.201948 92.4017 0.315282 93.0591 0.496616C93.7391 0.655282 94.3851 0.893281 94.9971 1.21061C95.6317 1.50528 96.1871 1.91328 96.6631 2.43462C97.1617 2.93328 97.5584 3.56795 97.8531 4.33862C98.1477 5.10928 98.3064 6.03861 98.3291 7.12662C98.3291 8.87195 97.9777 10.5153 97.2751 12.0566C96.5724 13.5979 95.5524 14.9126 94.2151 16.0006C92.8777 17.0886 91.2344 17.8933 89.2851 18.4146C87.3584 18.9359 85.1597 19.0266 82.6891 18.6866C82.3944 19.5479 82.1451 20.2619 81.9411 20.8286C81.7597 21.3953 81.5897 21.9053 81.4311 22.3586C81.2724 22.8119 81.1137 23.2539 80.9551 23.6846C80.7964 24.1153 80.6037 24.6139 80.3771 25.1806C79.5157 25.1806 78.5297 25.1806 77.4191 25.1806C76.3084 25.1806 75.2771 25.2146 74.3251 25.2826ZM84.4571 12.9746C85.4997 13.1106 86.4517 13.0879 87.3131 12.9066C88.1971 12.7253 88.9337 12.3853 89.5231 11.8866C89.9537 11.4786 90.3164 10.9686 90.6111 10.3566C90.9057 9.74462 91.0757 9.14395 91.1211 8.55462C91.1664 7.94262 91.0531 7.39862 90.7811 6.92262C90.5091 6.44662 90.0217 6.15195 89.3191 6.03862C88.8884 5.99328 88.4011 6.00461 87.8571 6.07262C87.3357 6.11795 86.8031 6.26528 86.2591 6.51462C85.9417 7.57995 85.6357 8.65662 85.3411 9.74462C85.0691 10.8099 84.7744 11.8866 84.4571 12.9746Z" fill="white"/>
</g>
<defs>
<filter id="filter0_d_3583_750" x="0.550781" y="0.0206299" width="101.778" height="33.942" filterUnits="userSpaceOnUse" color-interpolation-filters="sRGB">
<feFlood flood-opacity="0" result="BackgroundImageFix"/>
<feColorMatrix in="SourceAlpha" type="matrix" values="0 0 0 0 0 0 0 0 0 0 0 0 0 0 0 0 0 0 127 0" result="hardAlpha"/>
<feOffset dy="4"/>
<feGaussianBlur stdDeviation="2"/>
<feComposite in2="hardAlpha" operator="out"/>
<feColorMatrix type="matrix" values="0 0 0 0 0 0 0 0 0 0 0 0 0 0 0 0 0 0 0.25 0"/>
<feBlend mode="normal" in2="BackgroundImageFix" result="effect1_dropShadow_3583_750"/>
<feBlend mode="normal" in="SourceGraphic" in2="effect1_dropShadow_3583_750" result="shape"/>
</filter>
</defs>
</svg>
